# xmcd
#
# Track frame offsets:
#	150
#	15287
#	31447
#	53325
#	65365
#	80702
#	101195
#	113377
#	131462
#	147145
#	163447
#	183340
#
# Disc length: 2716 seconds
#
# Revision: 2
# Processed by: cddbd v1.5.2PL0 Copyright (c) Steve Scherf et al.
# Submitted via: audiograbber 1.83.01
#
DISCID=960a9a0c
DTITLE=Sylvia Tyson - Gypsy Cadillac
DYEAR=1994
DGENRE=Folk
TTITLE0=Heart Disease
TTITLE1=Remain A Child
TTITLE2=Deeper Waters
TTITLE3=Feeling Seventeen Again
TTITLE4=The Sound Of One Heart  Breaking 
TTITLE5=I Walk These Rails
TTITLE6=String Too Short To Save
TTITLE7=Chocolate Cigarettes
TTITLE8=Diamond Love
TTITLE9=So Quiet Now
TTITLE10=Hearts On The Faultline
TTITLE11=Gypsy Cadillac
EXTD=
EXTT0=
EXTT1=
EXTT2=
EXTT3=
EXTT4=
EXTT5=
EXTT6=
EXTT7=
EXTT8=
EXTT9=
EXTT10=
EXTT11=
PLAYORDER=
